<?xml version="1.0" encoding="utf-8"?>
<!-- Generator: Adobe Illustrator 16.0.0, SVG Export Plug-In . SVG Version: 6.00 Build 0)  -->
<!DOCTYPE svg PUBLIC "-//W3C//DTD SVG 1.1//EN" "http://www.w3.org/Graphics/SVG/1.1/DTD/svg11.dtd">
<svg version="1.1" id="Layer_1" xmlns="http://www.w3.org/2000/svg" xmlns:xlink="http://www.w3.org/1999/xlink" x="0px" y="0px"
	 width="82.475px" height="82.807px" viewBox="0 0 82.475 82.807" enable-background="new 0 0 82.475 82.807" xml:space="preserve">
<polygon points="79.45,22.61 15.148,4.174 0.019,40.648 38.376,82.807 73.425,50.855 "/>
<polygon fill="none" stroke="#D1D3D4" stroke-miterlimit="10" points="81.842,28.641 21.092,0.641 0.592,34.391 32.092,81.891 
	71.592,55.641 "/>
<g>
	<path fill="#FFFFFF" d="M23.046,36.071c0,0.333,0.031,0.593,0.093,0.782c0.062,0.189,0.171,0.305,0.326,0.35v0.286h-2.043
		c-0.089-0.244-0.151-0.53-0.187-0.858c-0.621,0.701-1.429,1.051-2.422,1.051c-0.688,0-1.241-0.191-1.661-0.572
		s-0.629-0.896-0.629-1.544c0-0.621,0.183-1.134,0.549-1.538c0.366-0.404,0.913-0.659,1.64-0.765l1.784-0.26
		c0.244-0.036,0.419-0.103,0.526-0.203c0.106-0.1,0.16-0.227,0.16-0.383c0-0.279-0.102-0.491-0.306-0.635s-0.517-0.216-0.938-0.216
		c-0.439,0-0.76,0.08-0.962,0.239c-0.202,0.16-0.327,0.419-0.376,0.779h-1.844c0.093-0.883,0.394-1.526,0.902-1.93
		c0.508-0.403,1.319-0.605,2.433-0.605c0.896,0,1.613,0.18,2.15,0.539c0.537,0.359,0.805,0.878,0.805,1.558V36.071z M21.183,33.975
		c-0.235,0.164-0.692,0.295-1.371,0.393c-0.568,0.08-0.94,0.208-1.115,0.383s-0.263,0.407-0.263,0.695
		c0,0.289,0.093,0.506,0.279,0.652c0.187,0.146,0.408,0.22,0.666,0.22c0.488,0,0.911-0.136,1.268-0.409
		c0.357-0.273,0.536-0.613,0.536-1.022V33.975z"/>
	<path fill="#FFFFFF" d="M28.351,37.489h-2.003l-2.602-7.254h2.123l1.498,5.344h0.026l1.544-5.344h2.03L28.351,37.489z"/>
	<path fill="#FFFFFF" d="M33.955,29.375h-1.91v-1.771h1.91V29.375z M33.955,30.234v7.254h-1.91v-7.254H33.955z"/>
	<path fill="#FFFFFF" d="M39.872,32.457c-0.035-0.315-0.151-0.559-0.346-0.732c-0.195-0.173-0.506-0.26-0.932-0.26
		c-0.395,0-0.686,0.064-0.872,0.193c-0.187,0.128-0.28,0.291-0.28,0.486c0,0.19,0.079,0.338,0.236,0.442
		c0.158,0.104,0.764,0.281,1.82,0.529c1.078,0.253,1.764,0.547,2.057,0.882s0.439,0.753,0.439,1.254
		c0,0.803-0.283,1.417-0.849,1.844c-0.566,0.426-1.41,0.639-2.533,0.639c-0.989,0-1.765-0.204-2.326-0.612
		c-0.561-0.408-0.884-1.049-0.968-1.923h1.957c0,0.377,0.121,0.658,0.363,0.842c0.242,0.185,0.609,0.276,1.102,0.276
		c0.417,0,0.736-0.063,0.958-0.189c0.222-0.126,0.333-0.294,0.333-0.503c0-0.213-0.081-0.378-0.243-0.496s-0.711-0.276-1.647-0.476
		c-1.042-0.222-1.733-0.511-2.073-0.868c-0.339-0.357-0.509-0.787-0.509-1.288c0-0.719,0.257-1.307,0.772-1.764
		s1.275-0.686,2.283-0.686c0.985,0,1.739,0.204,2.263,0.612c0.523,0.408,0.814,1.007,0.872,1.797H39.872z"/>
	<path fill="#FFFFFF" d="M49.948,37.489h-1.91v-4.506c0-0.444-0.101-0.776-0.303-0.999c-0.202-0.222-0.514-0.333-0.935-0.333
		c-0.475,0-0.843,0.158-1.105,0.473c-0.262,0.315-0.393,0.716-0.393,1.205v4.16h-1.91v-9.784h1.91v3.454h0.027
		c0.435-0.741,1.143-1.111,2.123-1.111c0.754,0,1.359,0.221,1.813,0.662c0.455,0.441,0.682,1.028,0.682,1.76V37.489z"/>
	<path fill="#FFFFFF" d="M58.115,35.366c-0.222,0.75-0.619,1.323-1.191,1.72c-0.572,0.397-1.238,0.596-1.997,0.596
		c-1.194,0-2.105-0.329-2.735-0.988c-0.63-0.659-0.945-1.572-0.945-2.739c0-1.171,0.296-2.115,0.889-2.832
		c0.592-0.716,1.476-1.075,2.652-1.075c1.056,0,1.888,0.335,2.496,1.005s0.912,1.667,0.912,2.988v0.339h-5.039
		c0.044,0.59,0.217,1.033,0.519,1.328s0.712,0.442,1.231,0.442c0.311,0,0.579-0.072,0.805-0.216
		c0.227-0.144,0.373-0.333,0.439-0.569H58.115z M56.231,33.143c-0.04-0.461-0.19-0.832-0.452-1.111
		c-0.262-0.28-0.602-0.419-1.019-0.419c-0.905,0-1.422,0.51-1.551,1.531H56.231z"/>
	<path fill="#FFFFFF" d="M61.436,37.489h-1.91v-9.784h1.91v5.285l2.396-2.755h2.35l-2.563,2.809l2.629,4.446h-2.29l-1.73-3.108
		l-0.792,0.819V37.489z"/>
</g>
<g>
	<path fill="#FFFFFF" d="M49.959,48.658h-1.87v-0.912h-0.026c-0.439,0.736-1.141,1.104-2.104,1.104
		c-0.958,0-1.706-0.357-2.243-1.071c-0.537-0.714-0.806-1.657-0.806-2.829c0-1.149,0.282-2.059,0.845-2.729s1.285-1.005,2.163-1.005
		c0.932,0,1.633,0.377,2.104,1.131h0.026v-3.474h1.91V48.658z M44.874,45.083c0,0.639,0.14,1.165,0.419,1.578
		c0.28,0.413,0.661,0.619,1.145,0.619c0.537,0,0.953-0.189,1.248-0.569c0.295-0.379,0.442-0.884,0.442-1.514
		c0-0.772-0.137-1.353-0.413-1.744c-0.275-0.391-0.683-0.586-1.225-0.586c-0.51,0-0.908,0.195-1.191,0.586
		C45.016,43.844,44.874,44.387,44.874,45.083z"/>
	<path fill="#FFFFFF" d="M57.839,47.24c0,0.333,0.031,0.593,0.093,0.782c0.062,0.189,0.171,0.305,0.326,0.35v0.286h-2.043
		c-0.089-0.244-0.151-0.53-0.187-0.858c-0.621,0.701-1.429,1.051-2.422,1.051c-0.688,0-1.241-0.191-1.661-0.572
		s-0.629-0.896-0.629-1.544c0-0.621,0.183-1.134,0.549-1.538c0.366-0.404,0.913-0.659,1.64-0.765l1.784-0.26
		c0.244-0.036,0.419-0.103,0.526-0.203c0.106-0.1,0.16-0.227,0.16-0.383c0-0.279-0.102-0.491-0.306-0.635s-0.517-0.216-0.938-0.216
		c-0.439,0-0.76,0.08-0.962,0.239c-0.202,0.16-0.327,0.419-0.376,0.779H51.55c0.093-0.883,0.394-1.526,0.902-1.93
		c0.508-0.403,1.319-0.605,2.433-0.605c0.896,0,1.613,0.18,2.15,0.539c0.537,0.359,0.805,0.878,0.805,1.558V47.24z M55.976,45.144
		c-0.235,0.164-0.692,0.295-1.371,0.393c-0.568,0.08-0.94,0.208-1.115,0.383s-0.263,0.407-0.263,0.695
		c0,0.289,0.093,0.506,0.279,0.652c0.187,0.146,0.408,0.22,0.666,0.22c0.488,0,0.911-0.136,1.268-0.409
		c0.357-0.273,0.536-0.613,0.536-1.022V45.144z"/>
	<path fill="#FFFFFF" d="M63.656,43.626c-0.035-0.315-0.151-0.559-0.346-0.732c-0.195-0.173-0.506-0.26-0.932-0.26
		c-0.395,0-0.686,0.064-0.872,0.193c-0.187,0.128-0.28,0.291-0.28,0.486c0,0.19,0.079,0.338,0.236,0.442
		c0.158,0.104,0.764,0.281,1.82,0.529c1.078,0.253,1.764,0.547,2.057,0.882s0.439,0.753,0.439,1.254
		c0,0.803-0.283,1.417-0.849,1.844c-0.566,0.426-1.41,0.639-2.533,0.639c-0.989,0-1.765-0.204-2.326-0.612
		c-0.561-0.408-0.884-1.049-0.968-1.923h1.957c0,0.377,0.121,0.658,0.363,0.842c0.242,0.185,0.609,0.276,1.102,0.276
		c0.417,0,0.736-0.063,0.958-0.189c0.222-0.126,0.333-0.294,0.333-0.503c0-0.213-0.081-0.378-0.243-0.496s-0.711-0.276-1.647-0.476
		c-1.042-0.222-1.733-0.511-2.073-0.868c-0.339-0.357-0.509-0.787-0.509-1.288c0-0.719,0.257-1.307,0.772-1.764
		s1.275-0.686,2.283-0.686c0.985,0,1.739,0.204,2.263,0.612c0.523,0.408,0.814,1.007,0.872,1.797H63.656z"/>
</g>
</svg>
