<?xml version="1.0" encoding="utf-8"?>
<!-- Generator: Adobe Illustrator 16.0.0, SVG Export Plug-In . SVG Version: 6.00 Build 0)  -->
<!DOCTYPE svg PUBLIC "-//W3C//DTD SVG 1.1//EN" "http://www.w3.org/Graphics/SVG/1.1/DTD/svg11.dtd">
<svg version="1.1" xmlns="http://www.w3.org/2000/svg" xmlns:xlink="http://www.w3.org/1999/xlink" x="0px" y="0px" width="1280px"
	 height="800px" viewBox="0 0 1280 800" enable-background="new 0 0 1280 800" xml:space="preserve">
<g id="Layer_2">
	
		<radialGradient id="SVGID_1_" cx="640.7476" cy="401" r="534.716" gradientTransform="matrix(0.9981 0 0 1 0 0)" gradientUnits="userSpaceOnUse">
		<stop  offset="0" style="stop-color:#FFFFFF"/>
		<stop  offset="1" style="stop-color:#F0F0F0"/>
	</radialGradient>
	<rect x="-1" y="1" fill="url(#SVGID_1_)" width="1281" height="800"/>
</g>
<g id="Layer_1">
	<g id="XMLID_1_">
		<g>
			<polygon fill="#B3B3B3" points="938.131,207.035 875.891,376.435 833.021,404.695 893.501,234.665 			"/>
			<polygon fill="#CCCCCC" points="938.131,207.035 893.501,234.665 685.561,186.605 736.461,164.585 			"/>
			<polygon fill="#F2F2F2" points="893.501,234.665 833.021,404.695 832.861,404.665 831.261,405.695 646.391,350.935 
				646.391,350.915 685.561,186.605 			"/>
			<polygon fill="#B3B3B3" points="875.891,376.435 819.011,542.885 776.401,572.815 831.261,405.695 832.861,404.665 
				833.021,404.695 			"/>
			<polygon fill="#F2F2F2" points="831.261,405.695 776.401,572.815 776.241,572.755 774.541,573.935 610.061,513.765 
				610.071,513.715 646.391,350.935 			"/>
			<polygon fill="#B3B3B3" points="819.011,542.885 766.831,706.125 724.601,737.665 774.541,573.935 776.241,572.755 
				776.401,572.815 			"/>
			<polygon fill="#F2F2F2" points="774.541,573.935 724.601,737.665 576.251,674.425 610.061,513.765 			"/>
			<polygon fill="#FF0000" points="736.461,164.585 685.561,186.605 646.391,350.915 682.261,187.875 			"/>
			<polygon fill="#CCCCCC" points="736.461,164.585 682.261,187.875 504.211,134.345 559.631,115.625 			"/>
			<polygon fill="#F2F2F2" points="682.261,187.875 646.391,350.915 646.391,350.935 646.211,350.875 642.931,352.375 
				484.501,293.125 484.511,293.065 504.211,134.345 			"/>
			<polygon fill="#FF0000" points="646.391,350.935 610.071,513.715 642.931,352.375 646.211,350.875 			"/>
			<polygon fill="#F2F2F2" points="642.931,352.375 610.071,513.715 610.061,513.765 609.861,513.675 606.431,515.355 
				465.761,451.195 465.771,451.125 484.501,293.125 			"/>
			<polygon fill="#FF0000" points="610.061,513.765 576.251,674.425 606.431,515.355 609.861,513.675 			"/>
			<polygon fill="#F2F2F2" points="606.431,515.355 576.251,674.425 447.921,607.825 465.761,451.195 			"/>
			<polygon fill="#FF0000" points="559.631,115.625 504.211,134.345 484.511,293.065 499.211,135.935 			"/>
			<polygon fill="#CCCCCC" points="559.631,115.625 499.211,135.935 352.031,78.915 409.281,62.345 			"/>
			<polygon fill="#F2F2F2" points="499.211,135.935 484.511,293.065 484.501,293.125 484.351,293.055 484.341,293.055 
				393.921,254.505 348.981,233.285 352.031,78.915 			"/>
			<polygon fill="#FF0000" points="484.501,293.125 465.771,451.125 479.321,294.835 484.341,293.055 484.351,293.055 			"/>
			<polygon fill="#FF0000" points="484.341,293.055 479.321,294.835 393.921,254.505 			"/>
			<polygon fill="#F2F2F2" points="479.321,294.835 465.771,451.125 465.761,451.195 465.591,451.105 392.901,414.195 
				392.801,414.375 345.571,387.355 348.981,233.285 393.921,254.505 			"/>
			<polygon fill="#FF0000" points="465.761,451.195 447.921,607.825 460.391,453.055 465.591,451.105 			"/>
			<polygon fill="#FF0000" points="465.591,451.105 460.391,453.055 392.801,414.375 392.901,414.195 			"/>
			<polygon fill="#F2F2F2" points="460.391,453.055 447.921,607.825 341.871,540.335 345.571,387.355 392.801,414.375 			"/>
		</g>
		<g>
			<line fill="none" stroke="#1A1A1A" stroke-width="0.75" x1="465.761" y1="451.195" x2="606.431" y2="515.355"/>
			<line fill="none" stroke="#1A1A1A" stroke-width="0.75" x1="447.921" y1="607.825" x2="465.761" y2="451.195"/>
			<line fill="none" stroke="#1A1A1A" stroke-width="0.75" x1="576.251" y1="674.425" x2="447.921" y2="607.825"/>
			<line fill="none" stroke="#1A1A1A" stroke-width="0.75" x1="606.431" y1="515.355" x2="576.251" y2="674.425"/>
			<line fill="none" stroke="#1A1A1A" stroke-width="0.75" x1="609.861" y1="513.675" x2="606.431" y2="515.355"/>
			<line fill="none" stroke="#1A1A1A" stroke-width="0.75" x1="352.031" y1="78.915" x2="499.211" y2="135.935"/>
			<line fill="none" stroke="#1A1A1A" stroke-width="0.75" x1="409.281" y1="62.345" x2="352.031" y2="78.915"/>
			<line fill="none" stroke="#1A1A1A" stroke-width="0.75" x1="348.981" y1="233.285" x2="352.031" y2="78.915"/>
			<line fill="none" stroke="#1A1A1A" stroke-width="0.75" x1="484.341" y1="293.055" x2="393.921" y2="254.505"/>
			<line fill="none" stroke="#1A1A1A" stroke-width="0.75" x1="484.501" y1="293.125" x2="484.351" y2="293.055"/>
			<line fill="none" stroke="#1A1A1A" stroke-width="0.75" x1="499.211" y1="135.935" x2="484.511" y2="293.065"/>
			<line fill="none" stroke="#1A1A1A" stroke-width="0.75" x1="559.631" y1="115.625" x2="499.211" y2="135.935"/>
			<line fill="none" stroke="#1A1A1A" stroke-width="0.75" x1="409.281" y1="62.345" x2="559.631" y2="115.625"/>
			<polyline fill="none" stroke="#1A1A1A" stroke-width="0.75" points="348.981,233.285 393.921,254.505 479.321,294.835 			"/>
			<line fill="none" stroke="#1A1A1A" stroke-width="0.75" x1="345.571" y1="387.355" x2="348.981" y2="233.285"/>
			<polyline fill="none" stroke="#1A1A1A" stroke-width="0.75" points="465.761,451.195 465.591,451.105 392.901,414.195 			"/>
			<line fill="none" stroke="#1A1A1A" stroke-width="0.75" x1="479.321" y1="294.835" x2="465.771" y2="451.125"/>
			<polyline fill="none" stroke="#1A1A1A" stroke-width="0.75" points="484.351,293.055 484.341,293.055 479.321,294.835 			"/>
			<polyline fill="none" stroke="#1A1A1A" stroke-width="0.75" points="345.571,387.355 392.801,414.375 460.391,453.055 			"/>
			<line fill="none" stroke="#1A1A1A" stroke-width="0.75" x1="341.871" y1="540.335" x2="345.571" y2="387.355"/>
			<line fill="none" stroke="#1A1A1A" stroke-width="0.75" x1="447.921" y1="607.825" x2="341.871" y2="540.335"/>
			<line fill="none" stroke="#1A1A1A" stroke-width="0.75" x1="460.391" y1="453.055" x2="447.921" y2="607.825"/>
			<line fill="none" stroke="#1A1A1A" stroke-width="0.75" x1="465.591" y1="451.105" x2="460.391" y2="453.055"/>
			<line fill="none" stroke="#1A1A1A" stroke-width="0.75" x1="504.211" y1="134.345" x2="682.261" y2="187.875"/>
			<line fill="none" stroke="#1A1A1A" stroke-width="0.75" x1="559.631" y1="115.625" x2="504.211" y2="134.345"/>
			<polyline fill="none" stroke="#1A1A1A" stroke-width="0.75" points="484.501,293.125 484.511,293.065 504.211,134.345 			"/>
			<line fill="none" stroke="#1A1A1A" stroke-width="0.75" x1="646.391" y1="350.935" x2="646.211" y2="350.875"/>
			<line fill="none" stroke="#1A1A1A" stroke-width="0.75" x1="682.261" y1="187.875" x2="646.391" y2="350.915"/>
			<line fill="none" stroke="#1A1A1A" stroke-width="0.75" x1="736.461" y1="164.585" x2="682.261" y2="187.875"/>
			<line fill="none" stroke="#1A1A1A" stroke-width="0.75" x1="559.631" y1="115.625" x2="736.461" y2="164.585"/>
			<line fill="none" stroke="#1A1A1A" stroke-width="0.75" x1="484.501" y1="293.125" x2="642.931" y2="352.375"/>
			<polyline fill="none" stroke="#1A1A1A" stroke-width="0.75" points="465.761,451.195 465.771,451.125 484.501,293.125 			"/>
			<line fill="none" stroke="#1A1A1A" stroke-width="0.75" x1="610.061" y1="513.765" x2="609.861" y2="513.675"/>
			<line fill="none" stroke="#1A1A1A" stroke-width="0.75" x1="642.931" y1="352.375" x2="610.071" y2="513.715"/>
			<line fill="none" stroke="#1A1A1A" stroke-width="0.75" x1="646.211" y1="350.875" x2="642.931" y2="352.375"/>
			<line fill="none" stroke="#1A1A1A" stroke-width="0.75" x1="685.561" y1="186.605" x2="893.501" y2="234.665"/>
			<line fill="none" stroke="#1A1A1A" stroke-width="0.75" x1="736.461" y1="164.585" x2="685.561" y2="186.605"/>
			<polyline fill="none" stroke="#1A1A1A" stroke-width="0.75" points="646.391,350.935 646.391,350.915 685.561,186.605 			"/>
			<line fill="none" stroke="#1A1A1A" stroke-width="0.75" x1="833.021" y1="404.695" x2="832.861" y2="404.665"/>
			<line fill="none" stroke="#1A1A1A" stroke-width="0.75" x1="875.891" y1="376.435" x2="833.021" y2="404.695"/>
			<line fill="none" stroke="#1A1A1A" stroke-width="0.75" x1="893.501" y1="234.665" x2="833.021" y2="404.695"/>
			<line fill="none" stroke="#1A1A1A" stroke-width="0.75" x1="938.131" y1="207.035" x2="893.501" y2="234.665"/>
			<line fill="none" stroke="#1A1A1A" stroke-width="0.75" x1="938.131" y1="207.035" x2="875.891" y2="376.435"/>
			<line fill="none" stroke="#1A1A1A" stroke-width="0.75" x1="736.461" y1="164.585" x2="938.131" y2="207.035"/>
			<line fill="none" stroke="#1A1A1A" stroke-width="0.75" x1="646.391" y1="350.935" x2="831.261" y2="405.695"/>
			<polyline fill="none" stroke="#1A1A1A" stroke-width="0.75" points="610.061,513.765 610.071,513.715 646.391,350.935 			"/>
			<line fill="none" stroke="#1A1A1A" stroke-width="0.75" x1="776.401" y1="572.815" x2="776.241" y2="572.755"/>
			<line fill="none" stroke="#1A1A1A" stroke-width="0.75" x1="819.011" y1="542.885" x2="776.401" y2="572.815"/>
			<line fill="none" stroke="#1A1A1A" stroke-width="0.75" x1="831.261" y1="405.695" x2="776.401" y2="572.815"/>
			<line fill="none" stroke="#1A1A1A" stroke-width="0.75" x1="832.861" y1="404.665" x2="831.261" y2="405.695"/>
			<line fill="none" stroke="#1A1A1A" stroke-width="0.75" x1="875.891" y1="376.435" x2="819.011" y2="542.885"/>
			<line fill="none" stroke="#1A1A1A" stroke-width="0.75" x1="610.061" y1="513.765" x2="774.541" y2="573.935"/>
			<line fill="none" stroke="#1A1A1A" stroke-width="0.75" x1="576.251" y1="674.425" x2="610.061" y2="513.765"/>
			<line fill="none" stroke="#1A1A1A" stroke-width="0.75" x1="724.601" y1="737.665" x2="576.251" y2="674.425"/>
			<line fill="none" stroke="#1A1A1A" stroke-width="0.75" x1="766.831" y1="706.125" x2="724.601" y2="737.665"/>
			<line fill="none" stroke="#1A1A1A" stroke-width="0.75" x1="774.541" y1="573.935" x2="724.601" y2="737.665"/>
			<line fill="none" stroke="#1A1A1A" stroke-width="0.75" x1="776.241" y1="572.755" x2="774.541" y2="573.935"/>
			<line fill="none" stroke="#1A1A1A" stroke-width="0.75" x1="819.011" y1="542.885" x2="766.831" y2="706.125"/>
		</g>
	</g>
</g>
</svg>
