<?xml version="1.0" encoding="utf-8"?>
<!-- Generator: Adobe Illustrator 16.0.0, SVG Export Plug-In . SVG Version: 6.00 Build 0)  -->
<!DOCTYPE svg PUBLIC "-//W3C//DTD SVG 1.1//EN" "http://www.w3.org/Graphics/SVG/1.1/DTD/svg11.dtd">
<svg version="1.1" id="Layer_1" xmlns="http://www.w3.org/2000/svg" xmlns:xlink="http://www.w3.org/1999/xlink" x="0px" y="0px"
	 width="59.52px" height="26.227px" viewBox="0 0 59.52 26.227" enable-background="new 0 0 59.52 26.227" xml:space="preserve">
<g>
	<path d="M1.882,15.444l2.611,3.962v0.407l-2.928,4.021h3.528c0.222,0,0.389-0.014,0.501-0.043c0.112-0.027,0.209-0.072,0.29-0.131
		c0.08-0.059,0.153-0.141,0.22-0.247c0.066-0.104,0.129-0.251,0.19-0.437c0.061-0.187,0.118-0.43,0.171-0.729h0.627l-0.156,2.616
		H0.139v-0.3l3.313-4.553l-3.109-4.819v-0.306h6.621v2.387H6.385c-0.089-0.34-0.174-0.617-0.254-0.831
		c-0.081-0.214-0.163-0.384-0.247-0.509s-0.17-0.222-0.257-0.287c-0.088-0.066-0.189-0.116-0.303-0.15
		c-0.114-0.034-0.267-0.051-0.456-0.051H1.882L1.882,15.444z"/>
</g>
<g>
	<path d="M25.108,21.701c0,0.308,0.015,0.521,0.043,0.641c0.028,0.12,0.083,0.211,0.163,0.273c0.081,0.063,0.212,0.117,0.395,0.164
		v0.263H23.58v-0.263c0.179-0.046,0.303-0.095,0.373-0.146c0.068-0.05,0.12-0.109,0.149-0.18c0.03-0.07,0.052-0.165,0.064-0.284
		c0.012-0.12,0.019-0.275,0.019-0.469v-4.487c0-0.343-0.002-0.583-0.008-0.719c-0.005-0.136-0.02-0.251-0.043-0.346
		s-0.056-0.169-0.097-0.223s-0.097-0.097-0.166-0.129c-0.07-0.031-0.196-0.063-0.378-0.097v-0.279l1.292-0.053h0.321V21.701z"/>
	<path d="M29,23.127c-0.743,0-1.312-0.219-1.702-0.657c-0.391-0.438-0.587-1.086-0.587-1.943c0-0.589,0.103-1.088,0.308-1.496
		c0.206-0.408,0.487-0.71,0.845-0.909c0.357-0.198,0.766-0.298,1.223-0.298c0.765,0,1.344,0.223,1.737,0.667
		c0.393,0.445,0.589,1.084,0.589,1.917c0,0.593-0.099,1.094-0.295,1.501c-0.196,0.408-0.476,0.712-0.837,0.914
		C29.921,23.026,29.494,23.127,29,23.127z M27.725,20.414c0,0.736,0.117,1.302,0.352,1.697c0.233,0.395,0.568,0.592,1.005,0.592
		c0.238,0,0.442-0.058,0.61-0.174s0.306-0.272,0.41-0.469c0.105-0.197,0.182-0.425,0.229-0.685s0.069-0.529,0.069-0.813
		c0-0.525-0.058-0.961-0.174-1.309c-0.116-0.347-0.273-0.601-0.474-0.764s-0.429-0.244-0.688-0.244
		c-0.433,0-0.764,0.188-0.995,0.563C27.84,19.186,27.725,19.721,27.725,20.414z"/>
	<path d="M37.306,18.457l-0.992-0.038l-0.048,0.06c0.111,0.11,0.198,0.262,0.263,0.453c0.065,0.19,0.098,0.396,0.098,0.618
		c0,0.583-0.181,1.032-0.539,1.349c-0.359,0.315-0.869,0.475-1.531,0.475c-0.296,0-0.552-0.038-0.767-0.112
		c-0.271,0.207-0.407,0.411-0.407,0.611c0,0.132,0.026,0.232,0.078,0.3c0.052,0.068,0.138,0.116,0.257,0.146
		c0.12,0.027,0.301,0.043,0.544,0.043h1.287c0.378,0,0.688,0.059,0.927,0.177c0.24,0.118,0.41,0.276,0.512,0.476
		c0.103,0.197,0.153,0.43,0.153,0.693c0,0.335-0.097,0.635-0.29,0.898c-0.192,0.263-0.472,0.467-0.836,0.613
		c-0.364,0.147-0.79,0.221-1.276,0.221c-0.36,0-0.69-0.021-0.988-0.064s-0.555-0.115-0.768-0.217s-0.377-0.236-0.493-0.402
		c-0.115-0.166-0.174-0.375-0.174-0.625c0-0.225,0.075-0.43,0.226-0.613c0.149-0.185,0.362-0.347,0.638-0.485
		c-0.168-0.068-0.3-0.168-0.397-0.3c-0.097-0.132-0.145-0.288-0.145-0.466c0-0.204,0.057-0.392,0.171-0.562
		c0.114-0.169,0.316-0.363,0.606-0.582c-0.258-0.149-0.453-0.354-0.587-0.611c-0.135-0.257-0.201-0.55-0.201-0.879
		c0-0.308,0.051-0.574,0.152-0.802c0.103-0.227,0.243-0.415,0.424-0.563c0.18-0.148,0.394-0.26,0.641-0.332
		c0.247-0.073,0.513-0.11,0.799-0.11c0.257,0,0.513,0.031,0.768,0.091h1.897V18.457z M33.719,23.127
		c-0.182,0.137-0.319,0.279-0.41,0.433c-0.091,0.151-0.137,0.323-0.137,0.517c0,0.322,0.127,0.559,0.383,0.71
		c0.255,0.152,0.646,0.229,1.171,0.229c0.322,0,0.599-0.043,0.828-0.13c0.23-0.086,0.407-0.209,0.528-0.369
		c0.121-0.161,0.182-0.349,0.182-0.563c0-0.1-0.013-0.198-0.038-0.292c-0.024-0.094-0.072-0.18-0.142-0.254
		c-0.07-0.075-0.169-0.135-0.297-0.18c-0.129-0.045-0.297-0.067-0.504-0.067h-0.8C34.196,23.159,33.94,23.148,33.719,23.127z
		 M33.585,19.545c0,0.447,0.091,0.792,0.272,1.035c0.183,0.243,0.445,0.365,0.788,0.365c0.183,0,0.338-0.035,0.466-0.104
		c0.13-0.069,0.233-0.166,0.314-0.286c0.08-0.121,0.139-0.263,0.177-0.422c0.038-0.158,0.057-0.325,0.057-0.501
		c0-0.313-0.044-0.576-0.135-0.788c-0.09-0.211-0.211-0.365-0.364-0.464c-0.154-0.098-0.331-0.146-0.531-0.146
		c-0.339,0-0.6,0.113-0.777,0.338S33.585,19.12,33.585,19.545z"/>
</g>
<g>
	<path d="M40.268,24.301c0,0.151,0.008,0.266,0.025,0.342c0.017,0.076,0.047,0.139,0.09,0.188c0.042,0.048,0.104,0.085,0.185,0.113
		c0.08,0.026,0.183,0.048,0.305,0.063s0.282,0.024,0.482,0.029v0.285h-2.88v-0.285c0.289-0.013,0.494-0.03,0.618-0.052
		c0.124-0.022,0.218-0.056,0.283-0.101c0.064-0.044,0.111-0.105,0.142-0.187s0.045-0.211,0.045-0.395v-3.159
		c0-0.104-0.019-0.181-0.055-0.229c-0.037-0.048-0.09-0.072-0.16-0.072c-0.083,0-0.202,0.043-0.354,0.128
		c-0.153,0.087-0.344,0.204-0.569,0.354l-0.172-0.3l1.824-1.087h0.214c-0.017,0.249-0.023,0.595-0.023,1.036V24.301z"/>
	<path d="M44.145,25.38c-0.561,0-0.979-0.221-1.253-0.663c-0.273-0.44-0.411-1.111-0.411-2.011c0-0.478,0.042-0.891,0.127-1.239
		c0.085-0.348,0.203-0.636,0.354-0.862c0.151-0.228,0.334-0.396,0.547-0.504c0.213-0.109,0.445-0.164,0.698-0.164
		c0.568,0,0.992,0.219,1.27,0.657c0.278,0.439,0.417,1.104,0.417,1.991c0,0.919-0.148,1.615-0.445,2.086
		C45.151,25.145,44.716,25.38,44.145,25.38z M43.241,22.59c0,0.848,0.077,1.469,0.234,1.864c0.157,0.396,0.401,0.594,0.731,0.594
		c0.313,0,0.547-0.186,0.698-0.559c0.152-0.373,0.229-0.95,0.229-1.732c0-0.597-0.039-1.081-0.117-1.45
		c-0.078-0.371-0.186-0.637-0.325-0.798c-0.139-0.16-0.307-0.241-0.504-0.241c-0.179,0-0.33,0.053-0.45,0.159
		c-0.119,0.107-0.218,0.261-0.292,0.461c-0.073,0.199-0.126,0.442-0.157,0.729C43.256,21.904,43.241,22.229,43.241,22.59z"/>
</g>
<path d="M53.558,19.719c0.172,0.13,0.311,0.283,0.416,0.462s0.19,0.427,0.255,0.745l0.123,0.622c0.04,0.197,0.084,0.374,0.134,0.531
	c0.051,0.157,0.11,0.283,0.181,0.375c0.068,0.093,0.147,0.163,0.235,0.209c0.087,0.046,0.216,0.084,0.384,0.113l-0.055,0.263h-1.484
	c-0.115-0.317-0.217-0.697-0.307-1.137l-0.235-1.137c-0.04-0.196-0.087-0.362-0.143-0.496c-0.056-0.135-0.122-0.238-0.199-0.312
	c-0.076-0.073-0.166-0.122-0.268-0.145c-0.102-0.023-0.226-0.035-0.373-0.035h-0.611l-0.375,1.7
	c-0.031,0.139-0.055,0.25-0.066,0.332c-0.014,0.083-0.023,0.169-0.032,0.26s-0.014,0.172-0.014,0.244
	c0,0.109,0.018,0.196,0.054,0.26s0.089,0.108,0.161,0.137c0.071,0.029,0.194,0.05,0.37,0.064l-0.06,0.263h-2.203l0.06-0.263
	c0.136-0.021,0.238-0.058,0.306-0.104c0.068-0.048,0.125-0.114,0.172-0.201c0.046-0.086,0.089-0.189,0.128-0.313
	c0.04-0.124,0.099-0.362,0.178-0.716l0.912-4.128c0.078-0.357,0.117-0.641,0.117-0.848c0-0.175-0.042-0.296-0.124-0.363
	c-0.082-0.068-0.216-0.107-0.401-0.118l0.059-0.263h2.386c0.38,0,0.688,0.021,0.929,0.066c0.238,0.045,0.443,0.112,0.613,0.201
	c0.171,0.089,0.313,0.205,0.427,0.346c0.113,0.142,0.199,0.3,0.257,0.478c0.057,0.177,0.086,0.365,0.086,0.565
	c0,0.55-0.168,1.02-0.504,1.405s-0.831,0.679-1.485,0.879L53.558,19.719L53.558,19.719z M52.346,19.317
	c0.518,0,0.927-0.07,1.229-0.209c0.3-0.14,0.537-0.368,0.713-0.687c0.175-0.317,0.263-0.661,0.263-1.028
	c0-0.154-0.015-0.291-0.043-0.41c-0.029-0.12-0.066-0.219-0.113-0.298c-0.046-0.078-0.104-0.148-0.177-0.209
	c-0.072-0.062-0.161-0.113-0.268-0.158c-0.107-0.044-0.231-0.077-0.373-0.096c-0.143-0.021-0.333-0.03-0.577-0.03
	c-0.189,0-0.391,0.007-0.601,0.021l-0.687,3.104H52.346z"/>
<path d="M57.464,23.974c-0.036,0.152-0.063,0.274-0.076,0.365c-0.014,0.092-0.021,0.174-0.021,0.246c0,0.1,0.02,0.17,0.061,0.214
	c0.04,0.044,0.101,0.066,0.181,0.066c0.046,0,0.094-0.009,0.141-0.027s0.097-0.047,0.149-0.086c0.054-0.039,0.112-0.089,0.176-0.149
	c0.063-0.062,0.135-0.135,0.212-0.221l0.265,0.258c-0.135,0.138-0.258,0.254-0.368,0.349c-0.109,0.095-0.215,0.172-0.313,0.232
	c-0.1,0.06-0.195,0.103-0.29,0.128c-0.096,0.024-0.196,0.039-0.303,0.039c-0.099,0-0.188-0.019-0.267-0.056
	c-0.08-0.036-0.147-0.086-0.205-0.149c-0.058-0.064-0.102-0.141-0.132-0.229c-0.031-0.088-0.047-0.186-0.047-0.292
	c0-0.086,0.01-0.191,0.031-0.32c0.021-0.127,0.047-0.266,0.079-0.415c0.033-0.148,0.068-0.306,0.107-0.469
	c0.039-0.164,0.077-0.326,0.115-0.486c0.038-0.161,0.07-0.316,0.102-0.466c0.03-0.148,0.051-0.284,0.064-0.406
	c0.005-0.021,0.008-0.041,0.008-0.062c0-0.02,0-0.037,0-0.053c-0.005-0.102-0.041-0.175-0.107-0.222
	c-0.065-0.048-0.184-0.073-0.353-0.078l0.046-0.266l1.13-0.042h0.191L57.464,23.974z M58.404,19.809l-0.19,0.837h-0.771l0.184-0.837
	H58.404z"/>
<g>
	<path d="M13.147,6.95c0,0.308,0.015,0.521,0.043,0.641c0.028,0.12,0.083,0.211,0.163,0.273c0.081,0.063,0.212,0.117,0.395,0.164
		v0.263h-2.128V8.029c0.179-0.046,0.303-0.095,0.373-0.146c0.068-0.05,0.12-0.109,0.149-0.18c0.03-0.07,0.052-0.165,0.064-0.284
		c0.012-0.12,0.019-0.275,0.019-0.469V2.463c0-0.343-0.002-0.583-0.008-0.719c-0.005-0.136-0.02-0.251-0.043-0.346
		s-0.056-0.169-0.097-0.223s-0.097-0.097-0.166-0.129c-0.07-0.031-0.196-0.063-0.378-0.097V0.671l1.292-0.053h0.321V6.95z"/>
	<path d="M17.039,8.376c-0.743,0-1.312-0.219-1.702-0.657c-0.391-0.438-0.587-1.086-0.587-1.943c0-0.589,0.103-1.088,0.308-1.496
		c0.206-0.408,0.487-0.71,0.845-0.909c0.357-0.198,0.766-0.298,1.223-0.298c0.765,0,1.344,0.223,1.737,0.667
		c0.393,0.445,0.589,1.084,0.589,1.917c0,0.593-0.099,1.094-0.295,1.501c-0.196,0.408-0.476,0.712-0.837,0.914
		C17.96,8.276,17.533,8.376,17.039,8.376z M15.764,5.663c0,0.736,0.117,1.302,0.352,1.697c0.233,0.395,0.568,0.592,1.005,0.592
		c0.238,0,0.442-0.058,0.61-0.174s0.306-0.272,0.41-0.469c0.105-0.197,0.182-0.425,0.229-0.685s0.069-0.529,0.069-0.813
		c0-0.525-0.058-0.961-0.174-1.309c-0.116-0.347-0.273-0.601-0.474-0.764s-0.429-0.244-0.688-0.244
		c-0.433,0-0.764,0.188-0.995,0.563C15.879,4.436,15.764,4.971,15.764,5.663z"/>
	<path d="M25.345,3.706l-0.992-0.038l-0.048,0.06c0.111,0.11,0.198,0.262,0.263,0.453c0.065,0.19,0.098,0.396,0.098,0.618
		c0,0.583-0.181,1.032-0.539,1.349c-0.359,0.315-0.869,0.475-1.531,0.475c-0.296,0-0.552-0.038-0.767-0.112
		c-0.271,0.207-0.407,0.411-0.407,0.611c0,0.132,0.026,0.232,0.078,0.3c0.052,0.068,0.138,0.116,0.257,0.146
		c0.12,0.027,0.301,0.043,0.544,0.043h1.287c0.378,0,0.688,0.059,0.927,0.177c0.24,0.118,0.41,0.276,0.512,0.476
		c0.103,0.197,0.153,0.43,0.153,0.693c0,0.335-0.097,0.635-0.29,0.898c-0.192,0.263-0.472,0.467-0.836,0.613
		c-0.364,0.147-0.79,0.221-1.276,0.221c-0.36,0-0.69-0.021-0.988-0.064s-0.555-0.115-0.768-0.217s-0.377-0.236-0.493-0.402
		c-0.115-0.166-0.174-0.375-0.174-0.625c0-0.225,0.075-0.43,0.226-0.613c0.149-0.185,0.362-0.347,0.638-0.485
		c-0.168-0.068-0.3-0.168-0.397-0.3c-0.097-0.132-0.145-0.288-0.145-0.466c0-0.204,0.057-0.392,0.171-0.562
		c0.114-0.169,0.316-0.363,0.606-0.582c-0.258-0.149-0.453-0.354-0.587-0.611c-0.135-0.257-0.201-0.55-0.201-0.879
		c0-0.308,0.051-0.574,0.152-0.802c0.103-0.227,0.243-0.415,0.424-0.563c0.18-0.148,0.394-0.26,0.641-0.332
		c0.247-0.073,0.513-0.11,0.799-0.11c0.257,0,0.513,0.031,0.768,0.091h1.897V3.706z M21.758,8.376
		c-0.182,0.137-0.319,0.279-0.41,0.433c-0.091,0.151-0.137,0.323-0.137,0.517c0,0.322,0.127,0.559,0.383,0.71
		c0.255,0.152,0.646,0.229,1.171,0.229c0.322,0,0.599-0.043,0.828-0.13c0.23-0.086,0.407-0.209,0.528-0.369
		c0.121-0.161,0.182-0.349,0.182-0.563c0-0.1-0.013-0.198-0.038-0.292c-0.024-0.094-0.072-0.18-0.142-0.254
		c-0.07-0.075-0.169-0.135-0.297-0.18c-0.129-0.045-0.297-0.067-0.504-0.067h-0.8C22.235,8.408,21.979,8.398,21.758,8.376z
		 M21.624,4.794c0,0.447,0.091,0.792,0.272,1.035c0.183,0.243,0.445,0.365,0.788,0.365c0.183,0,0.338-0.035,0.466-0.104
		c0.13-0.069,0.233-0.166,0.314-0.286c0.08-0.121,0.139-0.263,0.177-0.422c0.038-0.158,0.057-0.325,0.057-0.501
		c0-0.313-0.044-0.576-0.135-0.788c-0.09-0.211-0.211-0.365-0.364-0.464c-0.154-0.098-0.331-0.146-0.531-0.146
		c-0.339,0-0.6,0.113-0.777,0.338S21.624,4.369,21.624,4.794z"/>
</g>
<g>
	<path d="M28.307,9.55c0,0.151,0.008,0.266,0.025,0.342c0.017,0.076,0.047,0.139,0.09,0.188c0.042,0.048,0.104,0.085,0.185,0.113
		c0.08,0.026,0.183,0.048,0.305,0.063s0.282,0.024,0.482,0.029v0.285h-2.88v-0.285c0.289-0.013,0.494-0.03,0.618-0.052
		c0.124-0.022,0.218-0.056,0.283-0.101c0.064-0.044,0.111-0.105,0.142-0.187s0.045-0.211,0.045-0.395V6.392
		c0-0.104-0.019-0.181-0.055-0.229c-0.037-0.048-0.09-0.072-0.16-0.072c-0.083,0-0.202,0.043-0.354,0.128
		c-0.153,0.087-0.344,0.204-0.569,0.354l-0.172-0.3l1.824-1.087h0.214c-0.017,0.249-0.023,0.595-0.023,1.036V9.55z"/>
	<path d="M32.184,10.629c-0.561,0-0.979-0.221-1.253-0.663c-0.273-0.44-0.411-1.111-0.411-2.011c0-0.478,0.042-0.891,0.127-1.239
		c0.085-0.348,0.203-0.636,0.354-0.862c0.151-0.228,0.334-0.396,0.547-0.504c0.213-0.109,0.445-0.164,0.698-0.164
		c0.568,0,0.992,0.219,1.27,0.657c0.278,0.439,0.417,1.104,0.417,1.991c0,0.919-0.148,1.615-0.445,2.086
		C33.19,10.395,32.755,10.629,32.184,10.629z M31.281,7.839c0,0.848,0.077,1.469,0.234,1.864c0.157,0.396,0.401,0.594,0.731,0.594
		c0.313,0,0.547-0.186,0.698-0.559c0.152-0.373,0.229-0.95,0.229-1.732c0-0.597-0.039-1.081-0.117-1.45
		c-0.078-0.371-0.186-0.637-0.325-0.798c-0.139-0.16-0.307-0.241-0.504-0.241c-0.179,0-0.33,0.053-0.45,0.159
		c-0.119,0.107-0.218,0.261-0.292,0.461c-0.073,0.199-0.126,0.442-0.157,0.729C31.295,7.154,31.281,7.479,31.281,7.839z"/>
</g>
<path d="M41.597,4.968c0.172,0.13,0.311,0.283,0.416,0.462s0.19,0.427,0.255,0.745l0.123,0.622c0.04,0.197,0.084,0.374,0.134,0.531
	c0.051,0.157,0.11,0.283,0.181,0.375c0.068,0.093,0.147,0.163,0.235,0.209c0.087,0.046,0.216,0.084,0.384,0.113L43.27,8.288h-1.484
	c-0.115-0.317-0.217-0.697-0.307-1.137l-0.235-1.137c-0.04-0.196-0.087-0.362-0.143-0.496c-0.056-0.135-0.122-0.238-0.199-0.312
	c-0.076-0.073-0.166-0.122-0.268-0.145c-0.102-0.023-0.226-0.035-0.373-0.035H39.65l-0.375,1.7c-0.031,0.139-0.055,0.25-0.066,0.332
	c-0.014,0.083-0.023,0.169-0.032,0.26s-0.014,0.172-0.014,0.244c0,0.109,0.018,0.196,0.054,0.26s0.089,0.108,0.161,0.137
	c0.071,0.029,0.194,0.05,0.37,0.064l-0.06,0.263h-2.203l0.06-0.263c0.136-0.021,0.238-0.058,0.306-0.104
	c0.068-0.048,0.125-0.114,0.172-0.201c0.046-0.086,0.089-0.189,0.128-0.313c0.04-0.124,0.099-0.362,0.178-0.716l0.912-4.128
	c0.078-0.357,0.117-0.641,0.117-0.848c0-0.175-0.042-0.296-0.124-0.363c-0.082-0.068-0.216-0.107-0.401-0.118l0.059-0.263h2.386
	c0.38,0,0.688,0.021,0.929,0.066c0.238,0.045,0.443,0.112,0.613,0.201c0.171,0.089,0.313,0.205,0.427,0.346
	c0.113,0.142,0.199,0.3,0.257,0.478c0.057,0.177,0.086,0.365,0.086,0.565c0,0.55-0.168,1.02-0.504,1.405s-0.831,0.679-1.485,0.879
	L41.597,4.968L41.597,4.968z M40.385,4.567c0.518,0,0.927-0.07,1.229-0.209c0.3-0.14,0.537-0.368,0.713-0.687
	c0.175-0.317,0.263-0.661,0.263-1.028c0-0.154-0.015-0.291-0.043-0.41c-0.029-0.12-0.066-0.219-0.113-0.298
	c-0.046-0.078-0.104-0.148-0.177-0.209c-0.072-0.062-0.161-0.113-0.268-0.158c-0.107-0.044-0.231-0.077-0.373-0.096
	c-0.143-0.021-0.333-0.03-0.577-0.03c-0.189,0-0.391,0.007-0.601,0.021l-0.687,3.104H40.385z"/>
<path d="M45.503,9.224c-0.036,0.152-0.063,0.274-0.076,0.365c-0.014,0.092-0.021,0.174-0.021,0.246c0,0.1,0.02,0.17,0.061,0.214
	c0.04,0.044,0.101,0.066,0.181,0.066c0.046,0,0.094-0.009,0.141-0.027s0.097-0.047,0.149-0.086c0.054-0.039,0.112-0.089,0.176-0.149
	c0.063-0.062,0.135-0.135,0.212-0.221L46.59,9.89c-0.135,0.138-0.258,0.254-0.368,0.349c-0.109,0.095-0.215,0.172-0.313,0.232
	c-0.1,0.06-0.195,0.103-0.29,0.128c-0.096,0.024-0.196,0.039-0.303,0.039c-0.099,0-0.188-0.019-0.267-0.056
	c-0.08-0.036-0.147-0.086-0.205-0.149c-0.058-0.064-0.102-0.141-0.132-0.229c-0.031-0.088-0.047-0.186-0.047-0.292
	c0-0.086,0.01-0.191,0.031-0.32c0.021-0.127,0.047-0.266,0.079-0.415c0.033-0.148,0.068-0.306,0.107-0.469
	c0.039-0.164,0.077-0.326,0.115-0.486c0.038-0.161,0.07-0.316,0.102-0.466c0.03-0.148,0.051-0.284,0.064-0.406
	c0.005-0.021,0.008-0.041,0.008-0.062c0-0.02,0-0.037,0-0.053c-0.005-0.102-0.041-0.175-0.107-0.222
	c-0.065-0.048-0.184-0.073-0.353-0.078l0.046-0.266l1.13-0.042h0.191L45.503,9.224z M46.443,5.059l-0.19,0.837h-0.771l0.184-0.837
	H46.443z"/>
<path d="M9.811,15.893c0.252-0.347,0.501-0.604,0.747-0.775c0.245-0.171,0.499-0.257,0.762-0.257c0.275,0,0.481,0.074,0.618,0.222
	c0.137,0.148,0.204,0.356,0.204,0.624c0,0.081-0.011,0.192-0.035,0.335c-0.022,0.144-0.053,0.299-0.09,0.468
	c-0.036,0.17-0.075,0.343-0.117,0.521s-0.081,0.342-0.116,0.493c-0.036,0.149-0.066,0.278-0.09,0.386
	c-0.022,0.107-0.034,0.172-0.034,0.198c0,0.099,0.018,0.17,0.055,0.214c0.036,0.044,0.095,0.066,0.175,0.066
	c0.049,0,0.098-0.01,0.146-0.027c0.048-0.019,0.098-0.046,0.149-0.085s0.109-0.089,0.171-0.15c0.063-0.061,0.133-0.134,0.21-0.22
	l0.27,0.257c-0.127,0.13-0.244,0.242-0.352,0.335c-0.105,0.094-0.21,0.171-0.31,0.232c-0.1,0.061-0.199,0.106-0.298,0.137
	c-0.1,0.03-0.204,0.044-0.316,0.044c-0.093,0-0.18-0.018-0.259-0.054c-0.08-0.037-0.147-0.086-0.205-0.15
	c-0.057-0.063-0.102-0.139-0.132-0.226c-0.031-0.087-0.047-0.184-0.047-0.287c0-0.104,0.011-0.226,0.033-0.364
	c0.021-0.139,0.055-0.292,0.099-0.458c0.047-0.169,0.09-0.331,0.13-0.485c0.041-0.154,0.076-0.297,0.105-0.429
	c0.028-0.132,0.053-0.248,0.069-0.351c0.018-0.104,0.025-0.188,0.025-0.255c0-0.161-0.03-0.279-0.091-0.354
	c-0.062-0.075-0.159-0.113-0.294-0.113c-0.078,0-0.162,0.021-0.251,0.062c-0.091,0.041-0.181,0.096-0.271,0.167
	c-0.091,0.072-0.18,0.156-0.267,0.253c-0.087,0.098-0.167,0.201-0.239,0.312c-0.073,0.111-0.137,0.227-0.193,0.348
	c-0.056,0.121-0.097,0.241-0.123,0.359L9.213,18.84H8.451l0.584-2.541c0.033-0.135,0.059-0.256,0.073-0.361
	c0.016-0.106,0.023-0.194,0.023-0.262c0-0.188-0.077-0.284-0.23-0.284c-0.047,0-0.094,0.01-0.142,0.028
	c-0.048,0.021-0.099,0.049-0.152,0.088c-0.053,0.039-0.11,0.089-0.174,0.148c-0.062,0.06-0.132,0.13-0.21,0.21l-0.269-0.253
	c0.13-0.132,0.249-0.246,0.355-0.341c0.107-0.096,0.21-0.173,0.309-0.234c0.097-0.061,0.193-0.104,0.29-0.134
	c0.096-0.029,0.196-0.043,0.304-0.043c0.191,0,0.341,0.063,0.446,0.188c0.104,0.126,0.157,0.292,0.157,0.497
	c0,0.053-0.004,0.106-0.014,0.164c-0.009,0.058-0.025,0.112-0.048,0.164L9.811,15.893z"/>
<path d="M9.281,24.812c-0.035,0.152-0.062,0.274-0.075,0.365c-0.016,0.092-0.021,0.174-0.021,0.246c0,0.1,0.021,0.17,0.061,0.215
	c0.041,0.044,0.101,0.065,0.181,0.065c0.047,0,0.094-0.009,0.141-0.027c0.046-0.018,0.098-0.047,0.15-0.086s0.112-0.089,0.175-0.149
	c0.063-0.062,0.134-0.134,0.212-0.22l0.266,0.257c-0.136,0.138-0.259,0.254-0.369,0.349s-0.215,0.172-0.313,0.232
	c-0.098,0.06-0.194,0.103-0.29,0.128c-0.095,0.025-0.195,0.039-0.302,0.039c-0.099,0-0.188-0.019-0.267-0.056
	c-0.079-0.036-0.147-0.086-0.204-0.149c-0.059-0.063-0.103-0.141-0.133-0.229c-0.031-0.088-0.048-0.186-0.048-0.292
	c0-0.086,0.012-0.191,0.031-0.319c0.021-0.127,0.047-0.267,0.08-0.415c0.032-0.149,0.068-0.307,0.107-0.47
	c0.039-0.164,0.077-0.325,0.114-0.486c0.038-0.161,0.071-0.316,0.102-0.466c0.03-0.148,0.051-0.284,0.063-0.406
	c0.005-0.021,0.009-0.041,0.009-0.062c0-0.02,0-0.037,0-0.053c-0.006-0.101-0.041-0.175-0.107-0.222s-0.184-0.073-0.354-0.078
	l0.048-0.266l1.13-0.042h0.19L9.281,24.812z M10.22,20.646l-0.191,0.837H9.258l0.183-0.837H10.22z"/>
<g>
	<path d="M11.434,23.327v-0.519h4.8v0.519H11.434z M11.434,24.944v-0.519h4.8v0.519H11.434z"/>
</g>
<g>
	<path d="M18.837,26.218c-0.562,0-0.979-0.221-1.253-0.662c-0.274-0.441-0.411-1.112-0.411-2.012c0-0.478,0.042-0.891,0.127-1.238
		c0.085-0.349,0.203-0.637,0.354-0.863c0.152-0.228,0.334-0.396,0.548-0.504c0.213-0.109,0.444-0.164,0.697-0.164
		c0.569,0,0.992,0.219,1.271,0.658c0.277,0.438,0.417,1.103,0.417,1.99c0,0.919-0.149,1.615-0.446,2.086
		C19.843,25.982,19.408,26.218,18.837,26.218z M17.933,23.427c0,0.848,0.078,1.469,0.235,1.864c0.157,0.396,0.4,0.594,0.73,0.594
		c0.314,0,0.547-0.186,0.699-0.559s0.229-0.95,0.229-1.732c0-0.597-0.039-1.08-0.117-1.45c-0.078-0.371-0.187-0.637-0.325-0.797
		c-0.139-0.161-0.307-0.242-0.504-0.242c-0.179,0-0.33,0.053-0.45,0.16c-0.12,0.106-0.218,0.26-0.292,0.46
		c-0.074,0.199-0.126,0.442-0.158,0.729C17.948,22.742,17.933,23.067,17.933,23.427z"/>
</g>
<rect x="0" y="12.118" width="59.52" height="0.72"/>
</svg>
