<?xml version="1.0" encoding="utf-8"?>
<!-- Generator: Adobe Illustrator 16.0.0, SVG Export Plug-In . SVG Version: 6.00 Build 0)  -->
<!DOCTYPE svg PUBLIC "-//W3C//DTD SVG 1.1//EN" "http://www.w3.org/Graphics/SVG/1.1/DTD/svg11.dtd">
<svg version="1.1" xmlns="http://www.w3.org/2000/svg" xmlns:xlink="http://www.w3.org/1999/xlink" x="0px" y="0px"
	 width="595.28px" height="841.89px" viewBox="0 0 595.28 841.89" enable-background="new 0 0 595.28 841.89" xml:space="preserve">
<g id="Base_Curve">
	<path fill="none" stroke="#010101" stroke-linecap="round" stroke-linejoin="round" d="M179.869,248.372
		c-81.323-54.063-83.823-102.904-75.001-134.593s28.964-46.228,55.845-54.632c26.879-8.405,60.5-10.677,94.499-2.575
		c33.998,8.103,68.375,26.579,99.876,57.284c31.497,30.704,60.121,73.637,129.176,60.461"/>
	<path fill="none" stroke="#010101" stroke-linecap="round" stroke-linejoin="round" d="M179.869,527.462
		c-81.323-54.063-83.823-102.904-75.001-134.593s28.964-46.228,55.845-54.632c26.879-8.405,60.5-10.677,94.499-2.575
		c33.998,8.103,68.375,26.579,99.876,57.284c31.497,30.704,60.121,73.637,129.176,60.461"/>
	<path fill="none" stroke="#010101" stroke-linecap="round" stroke-linejoin="round" d="M179.869,806.552
		c-81.323-54.063-83.823-102.904-75.001-134.593s28.964-46.228,55.845-54.632c26.879-8.404,60.5-10.678,94.499-2.575
		c33.998,8.103,68.375,26.579,99.876,57.284c31.497,30.704,60.121,73.637,129.176,60.461"/>
</g>
<g id="Layer_1">
	<circle fill="#ED1C24" cx="179.868" cy="527.462" r="3.336"/>
	<circle fill="#ED1C24" cx="411.092" cy="443.013" r="3.337"/>
	<circle fill="#ED1C24" cx="319.738" cy="364.211" r="3.336"/>
	<circle fill="#ED1C24" cx="273.773" cy="341.122" r="3.336"/>
	<circle fill="#ED1C24" cx="227.607" cy="331.262" r="3.336"/>
	<circle fill="#ED1C24" cx="184.08" cy="332.815" r="3.336"/>
	<circle fill="#ED1C24" cx="146.745" cy="343.496" r="3.337"/>
	<circle fill="#ED1C24" cx="118.761" cy="364.573" r="3.336"/>
	<circle fill="#ED1C24" cx="102.793" cy="401.927" r="3.337"/>
	<circle fill="#ED1C24" cx="111.492" cy="458.097" r="3.336"/>
	<path fill="#ED1C24" d="M487.602,453.407c0-1.843-1.496-3.336-3.339-3.336c-1.84,0-3.336,1.493-3.336,3.336
		s1.496,3.336,3.336,3.336C486.105,456.743,487.602,455.25,487.602,453.407z"/>
	<circle opacity="0.5" fill="#ED1C24" cx="179.868" cy="806.552" r="3.336"/>
	<circle opacity="0.5" fill="#ED1C24" cx="411.092" cy="722.103" r="3.337"/>
	<circle opacity="0.5" fill="#ED1C24" cx="363.638" cy="680.66" r="3.337"/>
	<circle opacity="0.5" fill="#ED1C24" cx="319.738" cy="643.301" r="3.336"/>
	<circle opacity="0.5" fill="#ED1C24" cx="273.773" cy="620.212" r="3.336"/>
	<circle opacity="0.5" fill="#ED1C24" cx="227.607" cy="610.353" r="3.336"/>
	<circle opacity="0.5" fill="#ED1C24" cx="184.08" cy="611.905" r="3.336"/>
	<circle opacity="0.5" fill="#ED1C24" cx="146.745" cy="622.585" r="3.337"/>
	<circle opacity="0.5" fill="#ED1C24" cx="118.761" cy="643.663" r="3.336"/>
	<circle opacity="0.5" fill="#ED1C24" cx="102.793" cy="681.017" r="3.337"/>
	<circle opacity="0.5" fill="#ED1C24" cx="111.492" cy="737.187" r="3.336"/>
	<path opacity="0.5" fill="#ED1C24" d="M487.602,732.497c0-1.843-1.496-3.336-3.339-3.336c-1.84,0-3.336,1.493-3.336,3.336
		s1.496,3.336,3.336,3.336C486.105,735.833,487.602,734.34,487.602,732.497z"/>
</g>
<g id="Layer_3">
	<circle fill="#00AEEF" cx="416.304" cy="724.906" r="3.336"/>
	<circle fill="#00AEEF" cx="373.114" cy="690.481" r="3.337"/>
	<circle fill="#00AEEF" cx="325.942" cy="647.577" r="3.336"/>
	<circle fill="#00AEEF" cx="282.667" cy="623.579" r="3.336"/>
	<circle fill="#00AEEF" cx="239.595" cy="611.737" r="3.336"/>
	<circle fill="#00AEEF" cx="198.161" cy="610.259" r="3.336"/>
	<circle fill="#00AEEF" cx="161.262" cy="617.155" r="3.336"/>
	<circle fill="#00AEEF" cx="132.803" cy="630.476" r="3.337"/>
	<circle fill="#00AEEF" cx="113.042" cy="652.074" r="3.336"/>
	<circle fill="#00AEEF" cx="101.87" cy="687.521" r="3.336"/>
	<circle fill="#00AEEF" cx="111.701" cy="737.599" r="3.336"/>
</g>
<g id="Layer_4">
	<text transform="matrix(1 0 0 1 480.667 248.3721)" font-family="'Rockwell'" font-size="16">Base Curve</text>
	<text transform="matrix(1 0 0 1 383.1123 527.4629)" font-family="'Rockwell'" font-size="16">Initial Point of Evaluation</text>
	<text transform="matrix(1 0 0 1 327.7607 806.5527)" font-family="'Rockwell'" font-size="16">Modified Point for Segmentation</text>
</g>
</svg>
