<svg id="Layer_1" data-name="Layer 1" xmlns="http://www.w3.org/2000/svg" viewBox="0 0 199.579 71.892">
  <defs>
    <style>
      .cls-1 {
        fill: #1a1818;
      }
    </style>
  </defs>
  <title>Logo</title>
  <path class="cls-1" d="M1.556,31.977A1.571,1.571,0,0,1,0,30.464a1.59,1.59,0,0,1,1.513-1.723,1.685,1.685,0,0,1,1.723,1.766A1.623,1.623,0,0,1,1.556,31.977ZM3.613,27.9a1.6,1.6,0,1,1,0-3.193,1.563,1.563,0,0,1,1.513,1.513v.21A1.554,1.554,0,0,1,3.613,27.9Zm1.934-4.076a1.578,1.578,0,1,1-.169-3.151,1.6,1.6,0,0,1,1.682,1.513v.21A1.58,1.58,0,0,1,5.547,23.826ZM7.4,19.834A1.618,1.618,0,0,1,7.354,16.6a1.645,1.645,0,0,1,1.681,1.724A1.611,1.611,0,0,1,7.4,19.834Zm2.058-4.076a1.577,1.577,0,0,1-1.681-1.513,1.636,1.636,0,0,1,1.639-1.722,1.543,1.543,0,0,1,1.514,1.555v.21A1.518,1.518,0,0,1,9.454,15.757Zm2.564,6.6a1.578,1.578,0,0,1-1.556,1.555,1.6,1.6,0,0,1-1.6-1.6,1.569,1.569,0,0,1,1.6-1.6,3.623,3.623,0,0,1,.547.084A1.7,1.7,0,0,1,12.018,22.355Zm-.673-10.673a1.53,1.53,0,0,1-1.639-1.471,1.6,1.6,0,0,1,1.47-1.681A1.57,1.57,0,0,1,12.9,10.086v.168A1.556,1.556,0,0,1,11.346,11.682Zm1.849-4.034a1.6,1.6,0,0,1-1.6-1.639,1.58,1.58,0,0,1,1.557-1.555,1.631,1.631,0,0,1,1.681,1.513v.21A1.674,1.674,0,0,1,13.194,7.648Zm2.059-4.034a1.665,1.665,0,0,1-1.681-1.555,1.6,1.6,0,1,1,3.194.042A1.591,1.591,0,0,1,15.253,3.614Zm1.514,18.741a1.576,1.576,0,0,1-3.152-.043,1.594,1.594,0,0,1,1.6-1.6,3.586,3.586,0,0,1,.545.084A1.7,1.7,0,0,1,16.767,22.355ZM15.506,5.967a1.6,1.6,0,0,1,3.194.168,1.552,1.552,0,0,1-1.473,1.513,1.624,1.624,0,0,1-1.722-1.471Zm1.933,4.076A1.551,1.551,0,0,1,19.119,8.53a1.578,1.578,0,1,1-.168,3.151,1.517,1.517,0,0,1-1.513-1.428Zm4.034,12.269a1.6,1.6,0,1,1-1.64-1.638,1.65,1.65,0,0,1,.589.126A1.614,1.614,0,0,1,21.473,22.312Zm-.632-9.79a1.653,1.653,0,0,1,1.725,1.722,1.6,1.6,0,0,1-3.194.043A1.568,1.568,0,0,1,20.841,12.523Zm.465,5.588a1.62,1.62,0,1,1,0,.211Zm1.975,4.076a1.561,1.561,0,0,1,1.637-1.513,1.6,1.6,0,0,1,1.514,1.681,1.581,1.581,0,0,1-3.15.042Zm1.933,4.034a1.578,1.578,0,0,1,1.429-1.513,1.679,1.679,0,0,1,1.765,1.681A1.644,1.644,0,0,1,26.683,27.9a1.517,1.517,0,0,1-1.47-1.471Zm3.613,2.521a1.593,1.593,0,0,1,1.513,1.514,1.623,1.623,0,0,1-1.471,1.722,1.567,1.567,0,0,1-1.766-1.47A1.643,1.643,0,0,1,28.826,28.742Z"/>
  <path class="cls-1" d="M34.244,1.976a1.619,1.619,0,1,1-3.236-.084A1.607,1.607,0,0,1,32.521.3a1.575,1.575,0,0,1,1.723,1.47Zm1.975,4.16a1.619,1.619,0,0,1-3.234.042,1.643,1.643,0,0,1,1.681-1.722,1.536,1.536,0,0,1,1.554,1.471Zm1.975,4.16a1.518,1.518,0,0,1-1.723,1.512A1.589,1.589,0,0,1,34.959,10.3a1.664,1.664,0,0,1,1.47-1.765,1.6,1.6,0,0,1,1.765,1.513Zm.294,5.673a1.629,1.629,0,0,1-1.555-1.513,1.656,1.656,0,0,1,1.681-1.764,1.7,1.7,0,0,1,1.6,1.512A1.642,1.642,0,0,1,38.487,15.968Zm1.975,4.117a1.634,1.634,0,0,1-1.554-1.68,1.642,1.642,0,0,1,3.278-.084A1.621,1.621,0,0,1,40.462,20.086Zm2.185,4.16a1.656,1.656,0,0,1-1.765-1.681,1.6,1.6,0,0,1,1.723-1.6,1.63,1.63,0,0,1,1.556,1.514A1.667,1.667,0,0,1,42.647,24.246Zm3.319,2.564a1.621,1.621,0,0,1-1.723,1.555,1.571,1.571,0,0,1-1.554-1.724,1.642,1.642,0,0,1,3.276-.042Zm.548,2.143a1.618,1.618,0,0,1,.041,3.234,1.517,1.517,0,0,1-1.722-1.512v-.252A1.713,1.713,0,0,1,46.515,28.953Zm2.059-3.867a1.607,1.607,0,0,1,1.764,1.556,1.655,1.655,0,0,1-1.6,1.724A1.584,1.584,0,0,1,47.06,26.81V26.6A1.561,1.561,0,0,1,48.573,25.086Zm1.722-4.117a1.57,1.57,0,0,1,1.723,1.555,1.634,1.634,0,0,1-1.638,1.723,1.561,1.561,0,0,1-1.6-1.555v-.209A1.563,1.563,0,0,1,50.295,20.968Zm2.018-4.16a1.666,1.666,0,0,1,1.682,1.555,1.62,1.62,0,1,1-3.236.168v-.209A1.666,1.666,0,0,1,52.312,16.808Zm1.976-4.117a1.58,1.58,0,0,1,1.681,1.554,1.55,1.55,0,0,1-1.556,1.724,1.64,1.64,0,0,1-.125-3.277Zm.546-2.48a1.64,1.64,0,0,1,1.639-1.639,1.641,1.641,0,1,1-.631,3.194A1.742,1.742,0,0,1,54.834,10.211Zm3.4-5.756A1.66,1.66,0,0,1,59.96,6.093a1.569,1.569,0,0,1-1.6,1.6,1.632,1.632,0,0,1-1.681-1.765A1.659,1.659,0,0,1,58.236,4.455ZM60.338.3a1.639,1.639,0,1,1-.083,3.277,1.653,1.653,0,0,1-1.6-1.6v-.21A1.714,1.714,0,0,1,60.338.3Z"/>
  <path class="cls-1" d="M70.21.673a1.631,1.631,0,0,1,1.6,1.639,1.64,1.64,0,0,1-1.682,1.6,1.594,1.594,0,0,1-1.6-1.6A1.69,1.69,0,0,1,70.21.673Z"/>
  <path class="cls-1" d="M70.167,5.462a1.677,1.677,0,0,1,1.64,1.682,1.594,1.594,0,0,1-1.6,1.6A1.649,1.649,0,0,1,68.571,7.06a.847.847,0,0,1,.083-.546A1.523,1.523,0,0,1,70.167,5.462Z"/>
  <path class="cls-1" d="M70.167,10.127a1.676,1.676,0,0,1,1.64,1.681,1.618,1.618,0,1,1-3.235-.084.846.846,0,0,1,.083-.546A1.523,1.523,0,0,1,70.167,10.127Z"/>
  <path class="cls-1" d="M70.167,14.708a1.676,1.676,0,0,1,1.64,1.681,1.6,1.6,0,0,1-1.6,1.6A1.649,1.649,0,0,1,68.571,16.3a.848.848,0,0,1,.083-.547A1.522,1.522,0,0,1,70.167,14.708Z"/>
  <path class="cls-1" d="M70.167,19.414a1.639,1.639,0,1,1-1.6,1.6.847.847,0,0,1,.083-.547A1.522,1.522,0,0,1,70.167,19.414Z"/>
  <path class="cls-1" d="M70.21,24.12a1.632,1.632,0,0,1,1.638,1.6A1.711,1.711,0,0,1,70.167,27.4a1.665,1.665,0,0,1-1.6-1.681.846.846,0,0,1,.083-.546A1.671,1.671,0,0,1,70.21,24.12Z"/>
  <path class="cls-1" d="M70.21,28.574a1.639,1.639,0,0,1,0,3.277,1.674,1.674,0,0,1-1.639-1.68.848.848,0,0,1,.083-.547A1.671,1.671,0,0,1,70.21,28.574Z"/>
  <path class="cls-1" d="M81.218,4.959a1.66,1.66,0,1,1,0,3.32,1.572,1.572,0,0,1-1.639-1.555,2.359,2.359,0,0,1,.126-.714A1.594,1.594,0,0,1,81.218,4.959Zm.462,21.473A1.661,1.661,0,0,1,83.4,28.07a1.7,1.7,0,1,1-3.4.043,1.666,1.666,0,0,1,.127-.631A1.734,1.734,0,0,1,81.68,26.431Zm.295-16.767A1.622,1.622,0,0,1,83.7,11.22a1.809,1.809,0,0,1-1.766,1.807,1.616,1.616,0,0,1-1.681-1.6,1.142,1.142,0,0,1,.169-.673A1.711,1.711,0,0,1,81.975,9.665Zm2.563-8.446a1.671,1.671,0,0,1,1.681,1.6,1.71,1.71,0,0,1-1.64,1.807,1.676,1.676,0,0,1-1.6-2.31A1.712,1.712,0,0,1,84.538,1.219Zm1.47,11.514a1.606,1.606,0,0,1,1.64,1.6,1.578,1.578,0,0,1-1.64,1.681,1.651,1.651,0,0,1-1.681-1.64,1.63,1.63,0,0,1,.127-.587A1.591,1.591,0,0,1,86.008,12.733Zm.463,15.757a1.7,1.7,0,0,1,.041,3.4,1.61,1.61,0,0,1-1.681-1.555A1.43,1.43,0,0,1,85,29.583,1.579,1.579,0,0,1,86.471,28.49ZM89.622,0a1.624,1.624,0,0,1,1.6,1.6A1.7,1.7,0,0,1,89.5,3.32a1.64,1.64,0,0,1-1.638-1.639,1.687,1.687,0,0,1,.126-.63A1.741,1.741,0,0,1,89.622,0Zm1.387,14.12a1.681,1.681,0,0,1,1.724,1.6A1.744,1.744,0,0,1,91.051,17.4a1.572,1.572,0,0,1-1.639-1.556,1.653,1.653,0,0,1,.127-.63A1.389,1.389,0,0,1,91.009,14.12Zm.967,14.959a1.614,1.614,0,0,1,1.6,1.681A1.659,1.659,0,0,1,91.849,32.4a1.605,1.605,0,0,1-1.639-1.6,1.683,1.683,0,0,1,.127-.63A1.779,1.779,0,0,1,91.975,29.079ZM94.538.462a1.6,1.6,0,0,1,1.6,1.639,1.681,1.681,0,0,1-1.6,1.723,1.643,1.643,0,0,1-1.681-1.6,1.707,1.707,0,0,1,.126-.63A1.693,1.693,0,0,1,94.538.462ZM95.967,15.8a1.6,1.6,0,0,1,1.64,1.555,1.689,1.689,0,0,1-1.724,1.765,1.615,1.615,0,0,1-1.6-1.681,1.65,1.65,0,0,1,.127-.631A1.691,1.691,0,0,1,95.967,15.8Zm1.051,11.807a1.615,1.615,0,0,1,1.6,1.682,1.7,1.7,0,0,1-1.723,1.723,1.615,1.615,0,0,1-1.6-1.681,1.683,1.683,0,0,1,.127-.63A1.644,1.644,0,0,1,97.017,27.607ZM99.2,2.984a1.671,1.671,0,0,1,1.765,1.639A1.693,1.693,0,0,1,99.245,6.3a1.613,1.613,0,0,1-1.639-1.639,1.955,1.955,0,0,1,.083-.588A1.561,1.561,0,0,1,99.2,2.984Zm.588,15.926a1.681,1.681,0,1,1,0,3.361,1.591,1.591,0,0,1-1.681-1.6,2.329,2.329,0,0,1,.126-.714A1.608,1.608,0,0,1,99.791,18.91Zm.589,4.748a1.642,1.642,0,0,1,1.681,1.6,1.672,1.672,0,0,1-1.64,1.765,1.646,1.646,0,0,1-1.764-1.639,1.7,1.7,0,0,1,.125-.63A1.767,1.767,0,0,1,100.38,23.658Z"/>
  <path class="cls-1" d="M112.015.673a1.6,1.6,0,0,1,1.6,1.6,1.65,1.65,0,0,1-1.681,1.64,1.6,1.6,0,0,1-1.6-1.6,1.668,1.668,0,0,1,.125-.589A1.592,1.592,0,0,1,112.015.673Zm-.042,4.789a1.639,1.639,0,1,1,0,3.278A1.614,1.614,0,0,1,110.335,7.1a1.669,1.669,0,0,1,.125-.588A1.523,1.523,0,0,1,111.973,5.462Zm0,4.665a1.639,1.639,0,1,1-.041,3.277,1.6,1.6,0,0,1-1.6-1.638,1.669,1.669,0,0,1,.125-.588A1.523,1.523,0,0,1,111.973,10.127Zm0,4.581a1.639,1.639,0,1,1,0,3.278,1.614,1.614,0,0,1-1.638-1.64,1.671,1.671,0,0,1,.125-.589A1.523,1.523,0,0,1,111.973,14.708Zm0,4.706a1.65,1.65,0,0,1,1.64,1.681,1.6,1.6,0,0,1-1.6,1.6,1.649,1.649,0,0,1-1.68-1.639,1.667,1.667,0,0,1,.125-.588A1.522,1.522,0,0,1,111.973,19.414Zm.042,4.706a1.639,1.639,0,1,1-1.68,1.64,1.691,1.691,0,0,1,1.68-1.64Zm0,4.454a1.641,1.641,0,0,1,1.6,1.682,1.6,1.6,0,0,1-1.6,1.6,1.648,1.648,0,0,1-1.68-1.639,1.691,1.691,0,0,1,1.68-1.639Zm4.413-13.866a1.676,1.676,0,0,1,1.639,1.681,1.6,1.6,0,0,1-1.6,1.6,1.678,1.678,0,0,1-1.681-1.64,1.653,1.653,0,0,1,.126-.589A1.524,1.524,0,0,1,116.428,14.708Zm4.747,0a1.639,1.639,0,1,1,0,3.278,1.614,1.614,0,0,1-1.638-1.64,1.671,1.671,0,0,1,.125-.589A1.6,1.6,0,0,1,121.175,14.708Zm4.749,0a1.639,1.639,0,0,1,0,3.278,1.615,1.615,0,0,1-1.639-1.64,1.675,1.675,0,0,1,.126-.589A1.522,1.522,0,0,1,125.924,14.708Zm4.539,0a1.676,1.676,0,0,1,1.639,1.681,1.6,1.6,0,0,1-1.6,1.6,1.65,1.65,0,0,1-1.639-1.682.836.836,0,0,1,.084-.547A1.523,1.523,0,0,1,130.463,14.708ZM135.169.673a1.593,1.593,0,0,1,1.6,1.6,1.65,1.65,0,0,1-1.681,1.64,1.594,1.594,0,0,1-1.6-1.6A1.69,1.69,0,0,1,135.169.673Zm-.043,4.789a1.677,1.677,0,0,1,1.639,1.682,1.594,1.594,0,0,1-1.6,1.6A1.677,1.677,0,0,1,133.488,7.1a1.669,1.669,0,0,1,.125-.588A1.522,1.522,0,0,1,135.126,5.462Zm0,4.665a1.676,1.676,0,0,1,1.639,1.681,1.629,1.629,0,0,1-1.639,1.6,1.605,1.605,0,0,1-1.513-2.226A1.522,1.522,0,0,1,135.126,10.127Zm0,4.581a1.676,1.676,0,0,1,1.639,1.681,1.6,1.6,0,0,1-1.6,1.6,1.608,1.608,0,0,1-1.556-2.229A1.522,1.522,0,0,1,135.126,14.708Zm0,4.706a1.639,1.639,0,1,1,.043,3.277,1.649,1.649,0,0,1-1.639-1.68.847.847,0,0,1,.083-.547A1.522,1.522,0,0,1,135.126,19.414Zm.043,4.706a1.639,1.639,0,1,1-1.639,1.6.846.846,0,0,1,.083-.546A1.671,1.671,0,0,1,135.169,24.12Zm0,4.454a1.638,1.638,0,0,1,1.6,1.682,1.593,1.593,0,0,1-1.6,1.6,1.675,1.675,0,0,1-1.639-1.68.848.848,0,0,1,.083-.547A1.671,1.671,0,0,1,135.169,28.574Z"/>
  <path class="cls-1" d="M147.309.673a1.639,1.639,0,1,1-1.64,1.6.834.834,0,0,1,.084-.546A1.736,1.736,0,0,1,147.309.673Zm0,4.832a1.639,1.639,0,0,1,0,3.278,1.614,1.614,0,0,1-1.64-1.639,1.669,1.669,0,0,1,.125-.588A1.6,1.6,0,0,1,147.309,5.5Zm0,4.665a1.639,1.639,0,0,1,0,3.277,1.614,1.614,0,0,1-1.64-1.639,1.671,1.671,0,0,1,.125-.588A1.6,1.6,0,0,1,147.309,10.17Zm.041,4.58a1.6,1.6,0,0,1,1.6,1.639,1.639,1.639,0,1,1-3.277,0,1.667,1.667,0,0,1,.125-.588A1.593,1.593,0,0,1,147.35,14.75Zm0,4.706a1.594,1.594,0,0,1,1.6,1.6,1.639,1.639,0,1,1-3.277.042,1.676,1.676,0,0,1,.125-.589A1.593,1.593,0,0,1,147.35,19.456Zm-.041,4.664a1.639,1.639,0,0,1,0,3.277,1.614,1.614,0,0,1-1.64-1.638,1.671,1.671,0,0,1,.125-.589A1.6,1.6,0,0,1,147.309,24.12Zm0,4.454a1.639,1.639,0,1,1-.043,3.277,1.6,1.6,0,0,1-1.6-1.639,1.666,1.666,0,0,1,.125-.588A1.6,1.6,0,0,1,147.309,28.574ZM151.931.63a1.64,1.64,0,0,1,0,3.278,1.676,1.676,0,0,1-1.639-1.681.841.841,0,0,1,.084-.546A1.669,1.669,0,0,1,151.931.63Zm0,14.035a1.639,1.639,0,0,1,1.6,1.681,1.594,1.594,0,0,1-1.6,1.6,1.675,1.675,0,0,1-1.639-1.682.838.838,0,0,1,.084-.545A1.669,1.669,0,0,1,151.931,14.666Zm-.041,13.867a1.649,1.649,0,0,1,1.638,1.68,1.6,1.6,0,0,1-1.6,1.6,1.649,1.649,0,0,1-1.639-1.682.84.84,0,0,1,.084-.546A1.523,1.523,0,0,1,151.89,28.533ZM156.679.63a1.6,1.6,0,0,1,1.6,1.6,1.678,1.678,0,0,1-1.64,1.681A1.641,1.641,0,0,1,155,2.269a1.678,1.678,0,0,1,.127-.588A1.593,1.593,0,0,1,156.679.63Zm0,14.035a1.6,1.6,0,0,1,1.6,1.6A1.64,1.64,0,1,1,155,16.3a1.669,1.669,0,0,1,.127-.588A1.592,1.592,0,0,1,156.679,14.666Zm-.042,13.867a1.639,1.639,0,1,1,0,3.277A1.615,1.615,0,0,1,155,30.171a1.678,1.678,0,0,1,.127-.589A1.594,1.594,0,0,1,156.637,28.533Zm4.79-27.9a1.63,1.63,0,0,1,1.6,1.639,1.668,1.668,0,0,1-1.639,1.64,1.641,1.641,0,0,1-1.64-1.64A1.691,1.691,0,0,1,161.427.63Zm0,14.035a1.64,1.64,0,0,1,1.6,1.681,1.6,1.6,0,0,1-1.639,1.6,1.64,1.64,0,0,1-1.64-1.639,1.691,1.691,0,0,1,1.681-1.639Zm-.041,13.867a1.649,1.649,0,0,1,1.639,1.68,1.639,1.639,0,0,1-3.278-.041,1.669,1.669,0,0,1,.125-.589A1.526,1.526,0,0,1,161.386,28.533Zm4.58-27.9A1.667,1.667,0,0,1,167.6,2.269a1.639,1.639,0,1,1-3.278-.042.847.847,0,0,1,.084-.546A1.671,1.671,0,0,1,165.966.63Zm0,14.035A1.64,1.64,0,0,1,167.6,16.3a1.639,1.639,0,1,1-3.278-.043.844.844,0,0,1,.084-.545A1.671,1.671,0,0,1,165.966,14.666Zm-.042,13.867a1.639,1.639,0,1,1,.042,3.277,1.65,1.65,0,0,1-1.64-1.682.846.846,0,0,1,.084-.546A1.524,1.524,0,0,1,165.924,28.533Z"/>
  <path class="cls-1" d="M177.224.673a1.6,1.6,0,0,1,1.6,1.6,1.677,1.677,0,0,1-1.681,1.64,1.6,1.6,0,0,1-1.6-1.6,1.631,1.631,0,0,1,.127-.589A1.589,1.589,0,0,1,177.224.673Zm-.041,4.789a1.639,1.639,0,0,1,0,3.278,1.615,1.615,0,0,1-1.64-1.639,1.632,1.632,0,0,1,.127-.588A1.593,1.593,0,0,1,177.183,5.462Zm0,4.665a1.639,1.639,0,1,1-.042,3.277,1.6,1.6,0,0,1-1.6-1.638,1.632,1.632,0,0,1,.127-.588A1.593,1.593,0,0,1,177.183,10.127Zm0,4.581a1.639,1.639,0,0,1,0,3.278,1.616,1.616,0,0,1-1.64-1.64,1.634,1.634,0,0,1,.127-.589A1.593,1.593,0,0,1,177.183,14.708Zm0,4.706a1.65,1.65,0,0,1,1.639,1.681,1.639,1.639,0,0,1-3.278-.042,1.63,1.63,0,0,1,.127-.588A1.521,1.521,0,0,1,177.183,19.414Zm.041,4.706a1.631,1.631,0,0,1,1.6,1.64,1.639,1.639,0,0,1-3.278,0,1.634,1.634,0,0,1,.127-.589A1.669,1.669,0,0,1,177.224,24.12Zm0,4.454a1.64,1.64,0,0,1,1.6,1.682,1.6,1.6,0,0,1-1.639,1.6,1.6,1.6,0,0,1-1.513-2.226A1.669,1.669,0,0,1,177.224,28.574Zm4.076-11.85a1.619,1.619,0,1,1-.042,3.236,1.569,1.569,0,0,1-1.6-1.6,1.679,1.679,0,0,1,1.01-1.512A1.659,1.659,0,0,1,181.3,16.724Zm3.53-3.194a1.639,1.639,0,0,1,0,3.278,1.639,1.639,0,0,1-1.639-1.639,1.641,1.641,0,0,1,1.639-1.639Zm3.362-3.151a1.6,1.6,0,0,1,1.639,1.6,1.65,1.65,0,0,1-1.681,1.638,1.6,1.6,0,0,1-1.6-1.6,1.638,1.638,0,0,1,1.64-1.639Zm1.681,8.446a1.65,1.65,0,0,1-1.681,1.639,1.639,1.639,0,0,1,.041-3.277,1.752,1.752,0,0,1,1.555,1.135A2.983,2.983,0,0,1,189.873,18.826ZM191.427,7.1a1.63,1.63,0,0,1,1.64,1.6,1.65,1.65,0,0,1-1.681,1.639,1.6,1.6,0,0,1-1.6-1.6A1.638,1.638,0,0,1,191.427,7.1Zm1.723,15.463a1.638,1.638,0,1,1-1.638-1.639,1.754,1.754,0,0,1,1.555,1.135A3.191,3.191,0,0,1,193.149,22.565Zm1.345-18.741a1.639,1.639,0,1,1,0,3.277,1.667,1.667,0,0,1-1.639-1.639,1.639,1.639,0,0,1,1.639-1.638Zm1.975,22.523a1.65,1.65,0,0,1-1.681,1.639,1.618,1.618,0,0,1,.042-3.235,1.712,1.712,0,0,1,1.556,1.093A3.063,3.063,0,0,1,196.469,26.347ZM197.687.673a1.667,1.667,0,0,1,1.64,1.639,1.639,1.639,0,0,1-3.278,0A1.639,1.639,0,0,1,197.687.673Zm1.892,29.5a1.641,1.641,0,0,1-1.681,1.6,1.594,1.594,0,0,1-1.6-1.6,1.677,1.677,0,0,1,1.681-1.639,1.56,1.56,0,0,1,1.514,1.092A3.484,3.484,0,0,1,199.579,30.171Z"/>
  <g>
    <path class="cls-1" d="M3.95,40.084a1.639,1.639,0,0,1,0,3.277,1.613,1.613,0,0,1-1.639-1.639,1.672,1.672,0,0,1,.125-.589A1.524,1.524,0,0,1,3.95,40.084Zm0,4.832A1.713,1.713,0,0,1,5.631,46.6a1.66,1.66,0,1,1-3.194-.589A1.561,1.561,0,0,1,3.95,44.916Zm0,4.706a1.66,1.66,0,0,1,.043,3.319,1.64,1.64,0,0,1-1.557-2.269A1.524,1.524,0,0,1,3.95,49.622Zm.043,4.622a1.639,1.639,0,0,1,0,3.278,1.705,1.705,0,0,1-1.682-1.64,1.691,1.691,0,0,1,1.682-1.639Zm0,4.706A1.675,1.675,0,0,1,5.631,60.63a1.641,1.641,0,0,1-1.638,1.64,1.675,1.675,0,0,1-1.64-1.681.847.847,0,0,1,.083-.547A1.715,1.715,0,0,1,3.993,58.95ZM3.95,63.656a1.66,1.66,0,0,1,.043,3.32,1.684,1.684,0,0,1-1.64-1.723.848.848,0,0,1,.083-.547A1.524,1.524,0,0,1,3.95,63.656Zm0,4.5a1.639,1.639,0,1,1,0,3.277,1.639,1.639,0,0,1-1.6-1.681.849.849,0,0,1,.083-.547A1.522,1.522,0,0,1,3.95,68.153ZM8.781,40.042a1.593,1.593,0,0,1,1.6,1.6,1.676,1.676,0,0,1-1.639,1.681A1.641,1.641,0,0,1,7.1,41.679a1.66,1.66,0,0,1,.127-.588A1.591,1.591,0,0,1,8.781,40.042ZM8.739,68.111a1.639,1.639,0,1,1,0,3.277A1.615,1.615,0,0,1,7.1,69.75a1.651,1.651,0,0,1,.127-.588A1.592,1.592,0,0,1,8.739,68.111Zm5.126-28.069a1.629,1.629,0,0,1,1.6,1.638,1.66,1.66,0,0,1-3.319,0,1.635,1.635,0,0,1,.126-.588A1.727,1.727,0,0,1,13.865,40.042Zm-.04,28.069a1.649,1.649,0,0,1,1.638,1.681,1.6,1.6,0,0,1-1.638,1.6,1.678,1.678,0,0,1-1.682-1.639,1.626,1.626,0,0,1,.126-.588A1.738,1.738,0,0,1,13.825,68.111ZM18.783,41.05A1.639,1.639,0,1,1,17.1,42.688a1.688,1.688,0,0,1,1.681-1.638ZM17.1,69.035A1.614,1.614,0,0,1,18.741,67.4a1.639,1.639,0,1,1,0,3.277,1.524,1.524,0,0,1-1.514-1.05A1.5,1.5,0,0,1,17.1,69.035ZM23.069,43.4a1.66,1.66,0,0,1-.043,3.319A1.676,1.676,0,0,1,21.431,45a.848.848,0,0,1,.083-.547A1.671,1.671,0,0,1,23.069,43.4ZM21.431,66.724A1.686,1.686,0,0,1,23.069,65a1.633,1.633,0,0,1,1.6,1.64,1.65,1.65,0,0,1-1.64,1.681,1.524,1.524,0,0,1-1.513-1.051A.845.845,0,0,1,21.431,66.724Zm4.705-19.666A1.678,1.678,0,0,1,27.817,48.7a1.614,1.614,0,0,1-1.639,1.639A1.65,1.65,0,0,1,24.5,48.7a1.667,1.667,0,0,1,.125-.588A1.521,1.521,0,0,1,26.136,47.058ZM24.5,62.984a1.65,1.65,0,0,1,1.681-1.639,1.677,1.677,0,0,1,1.639,1.682,1.6,1.6,0,0,1-1.639,1.6,1.671,1.671,0,0,1-1.556-1.05A1.5,1.5,0,0,1,24.5,62.984ZM27.86,51.765A1.685,1.685,0,0,1,29.5,53.488a1.639,1.639,0,0,1-3.276,0,1.686,1.686,0,0,1,.125-.631A1.562,1.562,0,0,1,27.86,51.765Zm-1.639,6.513a1.594,1.594,0,0,1,1.6-1.6,1.64,1.64,0,0,1,1.681,1.6A1.693,1.693,0,0,1,27.817,60a1.524,1.524,0,0,1-1.471-1.134A1.49,1.49,0,0,1,26.222,58.278Z"/>
    <path class="cls-1" d="M36.219,71.472a1.572,1.572,0,0,1-1.556-1.513,1.591,1.591,0,0,1,1.514-1.724A1.686,1.686,0,0,1,37.9,70,1.625,1.625,0,0,1,36.219,71.472Zm2.06-4.076a1.6,1.6,0,1,1,0-3.193,1.563,1.563,0,0,1,1.512,1.513v.21A1.556,1.556,0,0,1,38.278,67.4Zm1.932-4.075a1.579,1.579,0,1,1-.168-3.152,1.6,1.6,0,0,1,1.681,1.513v.211A1.58,1.58,0,0,1,40.21,63.321Zm1.85-3.992a1.618,1.618,0,0,1-.043-3.235A1.645,1.645,0,0,1,43.7,57.816,1.61,1.61,0,0,1,42.059,59.329Zm2.059-4.076a1.577,1.577,0,0,1-1.681-1.513,1.635,1.635,0,0,1,1.638-1.723,1.543,1.543,0,0,1,1.514,1.555v.21A1.518,1.518,0,0,1,44.118,55.253Zm2.562,6.6A1.577,1.577,0,0,1,45.127,63.4a1.6,1.6,0,0,1-1.6-1.6,1.57,1.57,0,0,1,1.6-1.6,3.652,3.652,0,0,1,.546.084A1.7,1.7,0,0,1,46.681,61.849Zm-.673-10.673a1.53,1.53,0,0,1-1.638-1.471,1.6,1.6,0,0,1,1.471-1.681,1.57,1.57,0,0,1,1.723,1.555v.168A1.557,1.557,0,0,1,46.008,51.176Zm1.85-4.034a1.6,1.6,0,0,1-1.6-1.639,1.578,1.578,0,0,1,1.554-1.555A1.629,1.629,0,0,1,49.5,45.462v.21A1.672,1.672,0,0,1,47.857,47.142Zm2.06-4.033a1.619,1.619,0,1,1-.041-3.236A1.642,1.642,0,0,1,51.43,41.6,1.592,1.592,0,0,1,49.917,43.109Zm1.513,18.74a1.576,1.576,0,1,1-3.151-.042,1.6,1.6,0,0,1,1.6-1.6,3.652,3.652,0,0,1,.546.084A1.7,1.7,0,0,1,51.43,61.849ZM50.169,45.462a1.6,1.6,0,1,1,3.193.169,1.551,1.551,0,0,1-1.471,1.512,1.624,1.624,0,0,1-1.723-1.471ZM52.1,49.538a1.551,1.551,0,0,1,1.681-1.513,1.578,1.578,0,1,1-.168,3.151A1.517,1.517,0,0,1,52.1,49.748Zm4.034,12.27a1.6,1.6,0,1,1-1.64-1.639,1.652,1.652,0,0,1,.588.126A1.617,1.617,0,0,1,56.137,61.807Zm-.631-9.79a1.651,1.651,0,0,1,1.723,1.723,1.6,1.6,0,0,1-3.193.042A1.568,1.568,0,0,1,55.506,52.017Zm.462,5.588a1.622,1.622,0,1,1,0,.211Zm1.976,4.076a1.563,1.563,0,0,1,1.639-1.513,1.6,1.6,0,0,1,1.512,1.681,1.581,1.581,0,0,1-3.15.043Zm1.933,4.034A1.58,1.58,0,0,1,61.3,64.2a1.679,1.679,0,0,1,1.765,1.682A1.644,1.644,0,0,1,61.346,67.4a1.516,1.516,0,0,1-1.47-1.471Zm3.613,2.52A1.592,1.592,0,0,1,65,69.75a1.625,1.625,0,0,1-1.471,1.723A1.567,1.567,0,0,1,61.767,70,1.642,1.642,0,0,1,63.489,68.236Z"/>
    <path class="cls-1" d="M71.975,44.453a1.66,1.66,0,1,1,0,3.32,1.572,1.572,0,0,1-1.64-1.555,2.3,2.3,0,0,1,.127-.715A1.593,1.593,0,0,1,71.975,44.453Zm.462,21.473a1.662,1.662,0,0,1,1.723,1.639,1.7,1.7,0,1,1-3.4.043,1.666,1.666,0,0,1,.126-.631A1.734,1.734,0,0,1,72.436,65.925ZM72.73,49.16a1.622,1.622,0,0,1,1.723,1.555,1.809,1.809,0,0,1-1.765,1.807,1.614,1.614,0,0,1-1.681-1.6,1.151,1.151,0,0,1,.167-.674A1.712,1.712,0,0,1,72.73,49.16Zm2.563-8.446a1.671,1.671,0,0,1,1.681,1.6,1.71,1.71,0,0,1-1.639,1.807,1.665,1.665,0,0,1-1.723-1.681,1.742,1.742,0,0,1,1.681-1.723Zm1.47,11.514a1.605,1.605,0,0,1,1.639,1.6,1.578,1.578,0,0,1-1.639,1.682,1.606,1.606,0,0,1-1.555-2.229A1.593,1.593,0,0,1,76.764,52.227Zm.463,15.757a1.7,1.7,0,0,1,.042,3.4,1.61,1.61,0,0,1-1.681-1.555,1.43,1.43,0,0,1,.169-.757A1.577,1.577,0,0,1,77.226,67.984Zm3.151-28.489a1.624,1.624,0,0,1,1.6,1.6,1.7,1.7,0,0,1-1.724,1.723,1.64,1.64,0,0,1-1.639-1.639,1.706,1.706,0,0,1,.127-.63A1.741,1.741,0,0,1,80.378,39.495Zm1.386,14.119a1.682,1.682,0,0,1,1.725,1.6,1.743,1.743,0,0,1-1.682,1.681,1.572,1.572,0,0,1-1.639-1.556,1.68,1.68,0,0,1,.126-.629A1.391,1.391,0,0,1,81.764,53.614Zm.967,14.959a1.615,1.615,0,0,1,1.6,1.681A1.659,1.659,0,0,1,82.6,71.892a1.605,1.605,0,0,1-1.639-1.6,1.668,1.668,0,0,1,.127-.63A1.781,1.781,0,0,1,82.73,68.573Zm2.563-28.616a1.6,1.6,0,0,1,1.6,1.639,1.683,1.683,0,0,1-1.6,1.724,1.643,1.643,0,0,1-1.681-1.6,1.8,1.8,0,0,1,1.681-1.766Zm1.43,15.338a1.6,1.6,0,0,1,1.639,1.555,1.691,1.691,0,0,1-1.724,1.766,1.615,1.615,0,0,1-1.6-1.682,1.675,1.675,0,0,1,.127-.631A1.7,1.7,0,0,1,86.724,55.295ZM87.772,67.1a1.615,1.615,0,0,1,1.6,1.681,1.7,1.7,0,0,1-1.723,1.723,1.614,1.614,0,0,1-1.6-1.681A1.747,1.747,0,0,1,87.772,67.1Zm2.186-24.624a1.672,1.672,0,0,1,1.766,1.639A1.693,1.693,0,0,1,90,45.8a1.612,1.612,0,0,1-1.639-1.638,1.987,1.987,0,0,1,.083-.589A1.562,1.562,0,0,1,89.958,42.478ZM90.547,58.4a1.681,1.681,0,1,1,0,3.361,1.591,1.591,0,0,1-1.681-1.6,2.356,2.356,0,0,1,.125-.714A1.611,1.611,0,0,1,90.547,58.4Zm.588,4.748a1.642,1.642,0,0,1,1.681,1.6,1.67,1.67,0,0,1-1.639,1.765,1.647,1.647,0,0,1-1.765-1.639,1.672,1.672,0,0,1,.127-.63A1.766,1.766,0,0,1,91.135,63.152Z"/>
  </g>
</svg>
